<svg width="212" height="148" viewBox="0 0 212 148" fill="none" xmlns="http://www.w3.org/2000/svg">
<circle cx="114" cy="74" r="74" fill="url(#paint0_radial)"/>
<path d="M204.893 28.1434L131.713 37.837L93.1482 43.3901C90.2017 43.8147 88.0146 46.3395 88.0146 49.3164V107.178C88.0146 110.42 90.5957 113.073 93.8369 113.163L105.925 113.497L100.711 128.213L124.84 113.88L143.686 114.539L143.686 114.544L205.505 116.08C208.869 116.163 211.641 113.46 211.641 110.095L211.65 34.0819C211.65 30.4692 208.475 27.6789 204.893 28.1434Z" fill="url(#paint1_linear)"/>
<path d="M118.318 85.2379C122.231 85.2379 125.402 82.0661 125.402 78.1534C125.402 74.2407 122.231 71.0688 118.318 71.0688C114.405 71.0688 111.233 74.2407 111.233 78.1534C111.233 82.0661 114.405 85.2379 118.318 85.2379Z" fill="white"/>
<path d="M149.832 85.2375C153.744 85.2375 156.916 82.0656 156.916 78.1529C156.916 74.2402 153.744 71.0684 149.832 71.0684C145.919 71.0684 142.747 74.2402 142.747 78.1529C142.747 82.0656 145.919 85.2375 149.832 85.2375Z" fill="white"/>
<path opacity="0.95" d="M116.878 4.05066L43.698 13.7442L5.13354 19.2974C2.18708 19.722 0 22.2467 0 25.2237V83.0849C0 86.3274 2.58107 88.9806 5.8223 89.07L80.7734 91.1581L110.709 108.625L103.628 91.6843L117.49 91.9871C120.854 92.0708 123.626 89.3669 123.627 86.0022L123.635 9.98911C123.636 6.37634 120.461 3.58605 116.878 4.05066Z" fill="url(#paint2_linear)"/>
<path d="M41.5414 70.7657C41.5414 71.4154 41.3813 72.1185 41.0611 72.8747C40.7409 73.6314 40.2374 74.3737 39.5506 75.1022C38.8636 75.8311 37.9866 76.4227 36.9194 76.8773C35.8519 77.3318 34.6084 77.5594 33.1883 77.5594C32.1116 77.5594 31.1324 77.4571 30.2509 77.253C29.3689 77.0491 28.5684 76.731 27.8493 76.2995C27.1299 75.8678 26.4686 75.2994 25.8656 74.594C25.3272 73.9536 24.8677 73.2366 24.4873 72.4431C24.1066 71.6496 23.8211 70.8028 23.6311 69.9023C23.4407 69.0023 23.3457 68.0463 23.3457 67.0345C23.3457 65.3918 23.5845 63.921 24.0627 62.6214C24.5406 61.3221 25.2252 60.2107 26.1162 59.2872C27.0073 58.3637 28.0513 57.6607 29.2485 57.178C30.4458 56.6956 31.7217 56.4541 33.077 56.4541C34.7289 56.4541 36.2 56.7836 37.4902 57.4425C38.7801 58.1017 39.7686 58.916 40.4556 59.8859C41.1424 60.8557 41.4858 61.7722 41.4858 62.6354C41.4858 63.1087 41.3187 63.5264 40.9846 63.8882C40.6504 64.2501 40.2468 64.4312 39.7734 64.4312C39.2444 64.4312 38.8475 64.3059 38.5831 64.0553C38.3186 63.8048 38.0238 63.3732 37.6991 62.7607C37.1607 61.7492 36.5273 60.9926 35.7987 60.4913C35.07 59.9902 34.172 59.7396 33.1049 59.7396C31.4064 59.7396 30.0537 60.385 29.0467 61.6748C28.0395 62.9649 27.5362 64.798 27.5362 67.1739C27.5362 68.7609 27.759 70.0815 28.2045 71.1346C28.65 72.188 29.281 72.9746 30.0979 73.4943C30.9144 74.0143 31.8705 74.274 32.9657 74.274C34.1535 74.274 35.1583 73.9795 35.9797 73.3899C36.8011 72.8007 37.4206 71.9351 37.8383 70.7935C38.0144 70.2554 38.2327 69.8169 38.4926 69.478C38.7522 69.1394 39.1699 68.9698 39.7455 68.9698C40.2374 68.9698 40.6596 69.1417 41.0124 69.4849C41.3649 69.8283 41.5414 70.2553 41.5414 70.7657Z" fill="white"/>
<path d="M49.4207 58.9595V64.8066H58.3445V58.9595C58.3445 58.1241 58.5324 57.4977 58.9083 57.0802C59.2843 56.6625 59.7785 56.4536 60.391 56.4536C61.0126 56.4536 61.5163 56.6603 61.9015 57.0731C62.2864 57.4862 62.4792 58.1151 62.4792 58.9595V75.039C62.4792 75.8836 62.2843 76.5147 61.8944 76.9323C61.5047 77.35 61.0035 77.5589 60.3908 77.5589C59.7689 77.5589 59.2723 77.3475 58.9013 76.9253C58.53 76.5032 58.3445 75.8743 58.3445 75.039V68.1756H49.4207V75.039C49.4207 75.8836 49.2258 76.5147 48.8361 76.9323C48.4462 77.35 47.945 77.5589 47.3325 77.5589C46.7106 77.5589 46.214 77.3475 45.8429 76.9253C45.4717 76.5032 45.2861 75.8743 45.2861 75.039V58.9595C45.2861 58.1241 45.4691 57.4977 45.836 57.0802C46.2026 56.6625 46.7013 56.4536 47.3326 56.4536C47.9543 56.4536 48.4579 56.6603 48.8431 57.0731C49.2279 57.4862 49.4207 58.1151 49.4207 58.9595Z" fill="white"/>
<path d="M79.9793 74.9L79.0047 72.3385H70.7074L69.7329 74.9557C69.3522 75.9769 69.0276 76.6659 68.7584 77.0231C68.4891 77.3804 68.0485 77.559 67.4358 77.559C66.9159 77.559 66.4564 77.3686 66.0576 76.9881C65.6584 76.6076 65.459 76.1759 65.459 75.6934C65.459 75.4149 65.5054 75.1274 65.5982 74.8303C65.6909 74.5334 65.8439 74.1203 66.0577 73.5913L71.2784 60.3378C71.4267 59.9575 71.6057 59.5004 71.8143 58.9666C72.0234 58.433 72.246 57.9898 72.4826 57.637C72.7194 57.2844 73.0301 56.999 73.4156 56.7807C73.8005 56.5629 74.2763 56.4536 74.8424 56.4536C75.4177 56.4536 75.898 56.5629 76.2834 56.7807C76.6683 56.9989 76.9794 57.2799 77.216 57.623C77.4529 57.9665 77.6522 58.3354 77.8148 58.7299C77.977 59.1245 78.1836 59.6511 78.4342 60.31L83.7662 73.4799C84.1839 74.4822 84.3926 75.211 84.3926 75.6656C84.3926 76.1388 84.1953 76.5728 83.801 76.9673C83.4064 77.3617 82.9308 77.559 82.374 77.559C82.049 77.559 81.7705 77.5008 81.5387 77.385C81.3067 77.2687 81.1118 77.1112 80.9539 76.9117C80.796 76.7122 80.6269 76.4059 80.4458 75.9929C80.2648 75.5801 80.1093 75.2156 79.9793 74.9ZM71.7934 69.2339H77.8911L74.8144 60.8113L71.7934 69.2339Z" fill="white"/>
<path d="M98.1746 60.2127H93.6641V75.0393C93.6641 75.8934 93.4738 76.5266 93.0932 76.9397C92.7126 77.3525 92.2209 77.5591 91.6175 77.5591C91.005 77.5591 90.506 77.3502 90.1208 76.9325C89.7356 76.5149 89.5432 75.8839 89.5432 75.0392V60.2126H85.0326C84.3273 60.2126 83.8027 60.0574 83.4594 59.7462C83.1159 59.4354 82.9443 59.0247 82.9443 58.5142C82.9443 57.9851 83.1228 57.5675 83.4804 57.2612C83.8376 56.9549 84.3551 56.8018 85.0326 56.8018H98.1746C98.8893 56.8018 99.4205 56.9597 99.7688 57.275C100.117 57.5907 100.291 58.0038 100.291 58.5141C100.291 59.0246 100.114 59.4354 99.7617 59.7461C99.4089 60.0575 98.8798 60.2127 98.1746 60.2127Z" fill="white"/>
<path d="M32.9039 31.0813V47.3661H42.0918C42.8243 47.3661 43.3864 47.5442 43.7782 47.9003C44.1697 48.2565 44.3659 48.7042 44.3659 49.2433C44.3659 49.7927 44.1725 50.238 43.7859 50.5787C43.399 50.9197 42.8343 51.09 42.0918 51.09H31.1488C30.1618 51.09 29.4521 50.8713 29.0197 50.4337C28.5871 49.9964 28.3711 49.2891 28.3711 48.3122V31.0813C28.3711 30.1656 28.5772 29.4787 28.9892 29.0209C29.4014 28.563 29.9432 28.334 30.6146 28.334C31.2961 28.334 31.8481 28.5606 32.2706 29.0132C32.6927 29.4662 32.9039 30.1555 32.9039 31.0813Z" fill="white"/>
<path d="M47.5254 48.7091V31.0813C47.5254 30.1656 47.7337 29.4787 48.1511 29.0209C48.5681 28.563 49.1074 28.334 49.7688 28.334C50.4504 28.334 51.0024 28.5606 51.4248 29.0132C51.8469 29.466 52.0582 30.1555 52.0582 31.0813V48.7091C52.0582 49.6352 51.8469 50.3268 51.4248 50.7848C51.0024 51.2426 50.4504 51.4717 49.7688 51.4717C49.1175 51.4717 48.5807 51.2401 48.1587 50.7773C47.7364 50.3143 47.5254 49.6249 47.5254 48.7091Z" fill="white"/>
<path d="M60.4368 31.3102L65.5039 46.3129L70.5863 31.2033C70.8508 30.4097 71.0492 29.8579 71.1816 29.5473C71.3137 29.237 71.5325 28.9574 71.8378 28.7079C72.1432 28.4588 72.5602 28.334 73.0894 28.334C73.476 28.334 73.8346 28.4308 74.1655 28.624C74.4961 28.8174 74.7555 29.0742 74.9437 29.3948C75.132 29.7153 75.2262 30.0384 75.2262 30.3639C75.2262 30.5879 75.1957 30.8294 75.1346 31.0889C75.0736 31.3483 74.9973 31.6028 74.9057 31.8519C74.8142 32.1014 74.7226 32.3583 74.631 32.6227L69.213 47.2439C69.0196 47.8036 68.8262 48.3352 68.633 48.8388C68.4397 49.3425 68.2157 49.7851 67.9614 50.1666C67.707 50.5482 67.3686 50.861 66.9464 51.1053C66.5242 51.3495 66.0079 51.4715 65.3974 51.4715C64.7869 51.4715 64.2704 51.3517 63.8483 51.1129C63.4259 50.874 63.0853 50.5585 62.8257 50.1666C62.5663 49.7752 62.3397 49.3299 62.1465 48.8313C61.9531 48.3329 61.7597 47.8037 61.5665 47.244L56.2401 32.745C56.1485 32.4806 56.0543 32.2211 55.9577 31.9666C55.8609 31.7124 55.7796 31.4377 55.7135 31.1425C55.6471 30.8474 55.6143 30.5983 55.6143 30.3946C55.6143 29.8757 55.8226 29.4026 56.2401 28.9752C56.6571 28.5479 57.1809 28.3342 57.812 28.3342C58.5851 28.3342 59.1322 28.5708 59.4527 29.0439C59.7729 29.5168 60.1011 30.2723 60.4368 31.3102Z" fill="white"/>
<path d="M93.3721 32.2109H83.1617V37.7053H92.5633C93.2552 37.7053 93.7715 37.8606 94.1126 38.1708C94.4532 38.4814 94.6238 38.8908 94.6238 39.3995C94.6238 39.9085 94.4559 40.3228 94.1201 40.6434C93.7843 40.964 93.2655 41.1242 92.5633 41.1242H83.1617V47.4885H93.7232C94.4353 47.4885 94.9722 47.6541 95.3334 47.9846C95.6944 48.3154 95.8752 48.7554 95.8752 49.3048C95.8752 49.834 95.6945 50.264 95.3334 50.5944C94.972 50.9252 94.4352 51.0905 93.7232 51.0905H81.4067C80.4197 51.0905 79.7099 50.8718 79.2777 50.4342C78.845 49.9969 78.6289 49.2896 78.6289 48.3127V31.4936C78.6289 30.8426 78.7256 30.3107 78.9189 29.8987C79.1121 29.4866 79.4149 29.1866 79.8271 28.9982C80.239 28.81 80.7656 28.7158 81.4067 28.7158H93.3722C94.0946 28.7158 94.6315 28.876 94.9823 29.1966C95.3335 29.5171 95.5089 29.9368 95.5089 30.4557C95.5089 30.9849 95.3335 31.4097 94.9823 31.7301C94.6314 32.0506 94.0945 32.2109 93.3721 32.2109Z" fill="white"/>
<defs>
<radialGradient id="paint0_radial" cx="0" cy="0" r="1" gradientUnits="userSpaceOnUse" gradientTransform="translate(114 74) rotate(90) scale(74)">
<stop stop-color="#67FF1F" stop-opacity="0"/>
<stop offset="1" stop-color="#81F7FF"/>
</radialGradient>
<linearGradient id="paint1_linear" x1="159.598" y1="23.791" x2="140.206" y2="134.772" gradientUnits="userSpaceOnUse">
<stop stop-color="#004AA2"/>
<stop offset="1" stop-color="#003979"/>
</linearGradient>
<linearGradient id="paint2_linear" x1="61.4786" y1="3.54899" x2="62.2456" y2="100.774" gradientUnits="userSpaceOnUse">
<stop stop-color="#00BEFF"/>
<stop offset="1" stop-color="#007DFF"/>
</linearGradient>
</defs>
</svg>
